<svg xmlns="http://www.w3.org/2000/svg" viewBox="0 0 306.74 105.37"><defs><style>.a,.b,.c{fill:none;stroke:#000;stroke-miterlimit:10;}.a{stroke-width:27.75px;}.b{stroke-width:22px;}.c{stroke-width:27px;}</style></defs><title>doic</title><circle class="a" cx="145.89" cy="51.84" r="32.05"/><path class="a" d="M300.74,69.45a32,32,0,1,1-15.55-42.57" transform="translate(-6.59 -4.1)"/><path class="b" d="M318.84,55.94" transform="translate(-6.59 -4.1)"/><line class="a" x1="209.3" y1="24.66" x2="197.87" y2="101.55"/><line class="a" x1="212.38" y1="3.11" x2="210.29" y2="17.14"/><path class="a" d="M42.22,19.76A40,40,0,1,1,65.8,96.2" transform="translate(-6.59 -4.1)"/><line class="c" x1="44.83" y1="5.01" x2="36.57" y2="62.06"/><rect x="7.57" y="63.98" width="22.62" height="15.39" transform="translate(3.88 -6.06) rotate(8.24)"/><rect x="17.67" y="73.22" width="22.62" height="15.39" transform="translate(5.31 -7.41) rotate(8.24)"/><path d="M43,9.35a15.62,15.62,0,0,1-2.38-2.43,1.11,1.11,0,0,0-.49-.31,1.15,1.15,0,0,0-.58-.13,1.53,1.53,0,0,0-1.06.44A1.56,1.56,0,0,0,38.07,8l.06.4a1.51,1.51,0,0,0,.38.66,16.15,16.15,0,0,0,2.39,2.43,1.14,1.14,0,0,0,.48.31,1.15,1.15,0,0,0,.58.13A1.54,1.54,0,0,0,43,11.47a1.52,1.52,0,0,0,.44-1.06A1.48,1.48,0,0,0,43,9.35Z" transform="translate(-6.59 -4.1)"/><path d="M39.46,9.17a1.5,1.5,0,0,0,0-3,1.5,1.5,0,0,0,0,3Z" transform="translate(-6.59 -4.1)"/></svg>