<?xml version="1.0" encoding="utf-8"?>
<!-- Generator: Adobe Illustrator 24.0.0, SVG Export Plug-In . SVG Version: 6.00 Build 0)  -->
<svg version="1.1" id="Calque_1" xmlns="http://www.w3.org/2000/svg" xmlns:xlink="http://www.w3.org/1999/xlink" x="0px" y="0px"
	 viewBox="0 0 328 117.13" style="enable-background:new 0 0 328 117.13;" xml:space="preserve">
<style type="text/css">
	.st0{fill:#FFFFFF;stroke:#000000;stroke-width:3;stroke-miterlimit:10;}
	.st1{fill:none;stroke:#000000;stroke-width:3;stroke-miterlimit:10;}
</style>
<g>
	<path class="st0" d="M30.81,73.61c14.1-1.87,32.49-4.93,53.7-10.19c34.98-8.66,47.3-15.78,66.2-10.65
		c13.9,3.78,33.5,14.77,33.33,29.17c-0.11,9.37-8.61,18.34-17.59,20.83c-17.45,4.84-40.99-13.61-41.2-29.17
		c-0.34-24.13,55.39-44.96,90.28-51.85c38.2-7.55,70.44-2.16,88.89,2.31"/>
	<path class="st1" d="M289.61,4.63c-0.1,1.98,0.01,5.51,1.85,9.26c3.76,7.65,11.63,9.84,12.96,10.19"/>
	<path class="st1" d="M284.98,38.89c0.11-2.44,0.76-4.28,1.39-5.56c4.4-8.92,17.29-9.25,18.06-9.26"/>
</g>
</svg>
