<svg xmlns="http://www.w3.org/2000/svg" width="300.61" height="87.24" viewBox="0 0 300.61 87.24"><defs><style>.a,.b,.c{fill:none;stroke-miterlimit:10;}.a,.b{stroke:#000;stroke-width:11px;}.b{stroke-linecap:square;}.c{stroke:red;stroke-linecap:round;stroke-width:2px;}</style></defs><line class="a" x1="80.08" y1="29.45" x2="80.08" y2="62.78"/><line class="a" x1="79.24" y1="26.12" x2="104.42" y2="58.99"/><line class="a" x1="103.58" y1="22.81" x2="103.58" y2="55.66"/><line class="a" x1="5.5" y1="24.82" x2="5.5" y2="59.35"/><line class="a" x1="271.39" y1="26.98" x2="296.2" y2="60.13"/><line class="a" x1="296.29" y1="27.82" x2="269.39" y2="59.29"/><line class="a" x1="21.49" y1="36.14" x2="21.49" y2="72.83"/><path class="a" d="M75.41,26.78v23a14.15,14.15,0,0,1-28.29,0V15" transform="translate(-9.48 -6)"/><line class="b" x1="147.02" y1="8.5" x2="147.06" y2="36.8"/><circle class="b" cx="132.92" cy="42.76" r="14.15"/><line class="b" x1="196.63" y1="81.74" x2="196.63" y2="49.74"/><circle class="b" cx="210.78" cy="43.52" r="14.15"/><path class="b" d="M29.38,42.84" transform="translate(-9.48 -6)"/><path class="b" d="M263.65,63.53A14.15,14.15,0,0,1,249.5,49.38V11.5" transform="translate(-9.48 -6)"/><path class="b" d="M24.25,56.51" transform="translate(-9.48 -6)"/><line class="a" x1="162.7" y1="25.81" x2="162.7" y2="58.66"/><line class="b" x1="165.09" y1="57.94" x2="180.92" y2="57.94"/><line class="b" x1="168.93" y1="42.12" x2="177.08" y2="42.12"/><line class="b" x1="164.94" y1="26.29" x2="180.76" y2="26.29"/><path class="c" d="M54,21a61.2,61.2,0,0,0,21-8c4.7-2.91,8.35-6.14,10-5,2.38,1.64-3.53,9.51-1,13,4.87,6.71,32.37-14.56,62-8a54.77,54.77,0,0,1,17,7" transform="translate(-9.48 -6)"/></svg>